<?xml version="1.0" encoding="UTF-8"?>
<!DOCTYPE svg PUBLIC "-//W3C//DTD SVG 1.1//EN" "http://www.w3.org/Graphics/SVG/1.1/DTD/svg11.dtd">
<!-- Creator: CorelDRAW X7 -->
<svg xmlns="http://www.w3.org/2000/svg" xml:space="preserve" width="472px" height="472px" version="1.1" style="shape-rendering:geometricPrecision; text-rendering:geometricPrecision; image-rendering:optimizeQuality; fill-rule:evenodd; clip-rule:evenodd"
viewBox="0 0 4720 4720"
 xmlns:xlink="http://www.w3.org/1999/xlink">
 <defs>
  <style type="text/css">
   <![CDATA[
    .str0 {stroke:#343871;stroke-width:2.3482;stroke-linecap:round;stroke-linejoin:round}
    .fil1 {fill:none}
    .fil2 {fill:#FEFEFE}
    .fil0 {fill:#343871}
   ]]>
  </style>
 </defs>
 <g id="Слой_x0020_1">
  <metadata id="CorelCorpID_0Corel-Layer"/>
  <g id="_840937280">
   <path class="fil0" d="M2360 4130c205,0 405,36 596,109 121,-38 239,-89 352,-152 -290,-159 -617,-243 -948,-243 -331,0 -658,84 -948,243 113,63 231,114 352,152 191,-73 391,-109 596,-109zm595 146l-6 -2c-188,-72 -387,-109 -589,-109 -202,0 -401,37 -589,109l-6 2 -6 -2c-135,-42 -266,-100 -392,-171l-27 -16 27 -15c302,-172 645,-263 993,-263 348,0 691,91 993,263l27 15 -27 16c-126,71 -258,129 -392,171l-6 2z"/>
   <path class="fil0" d="M2910 4365l-37 214c-165,38 -336,59 -513,59 -177,0 -348,-21 -513,-59l-37 -214c-706,-193 -1262,-749 -1455,-1455l-214 -37c-38,-165 -59,-336 -59,-513 0,-177 21,-348 59,-513l214 -37c193,-706 749,-1262 1455,-1455l37 -214c165,-38 336,-59 513,-59 177,0 348,21 513,59l37 214c706,193 1262,749 1455,1455l214 37c38,165 59,336 59,513 0,177 -21,348 -59,513l-214 37c-193,706 -749,1262 -1455,1455zm-550 -4312c-1274,0 -2307,1033 -2307,2307 0,1274 1033,2307 2307,2307 1274,0 2307,-1033 2307,-2307 0,-1274 -1033,-2307 -2307,-2307z"/>
   <path class="fil0" d="M2360 4395c-1122,0 -2036,-913 -2036,-2035 0,-1122 914,-2035 2036,-2035 1122,0 2036,913 2036,2035 0,1122 -914,2035 -2036,2035zm0 -4096c-1137,0 -2061,924 -2061,2061 0,1137 924,2061 2061,2061 1137,0 2061,-924 2061,-2061 0,-1137 -924,-2061 -2061,-2061z"/>
   <polygon class="fil0 str0" points="1279,3771 1196,3876 1220,3896 1339,3746 1315,3726 1215,3771 1180,3788 1178,3787 1261,3684 1237,3664 1118,3814 1142,3833 1241,3788 1279,3770 "/>
   <polygon class="fil0 str0" points="1136,3568 1112,3545 978,3682 1002,3705 1057,3649 1102,3693 1047,3750 1071,3773 1205,3636 1181,3613 1121,3674 1075,3630 "/>
   <path class="fil0 str0" d="M885 3532l105 -87 44 54c-5,0 -10,1 -15,3 -5,1 -11,4 -17,7 -6,4 -12,8 -19,13 -8,6 -16,12 -26,20l-40 29 -32 -39zm115 -118l34 -29 -19 -23 -55 45c1,3 3,4 4,7 2,2 3,3 5,5l-127 105 72 87 62 -47c11,-8 21,-15 29,-20 8,-6 15,-10 22,-13 6,-3 11,-4 16,-5 5,0 11,0 16,1l9 11 55 -46 -19 -22 -35 28 -69 -84z"/>
   <polygon class="fil0 str0" points="893,3363 781,3437 798,3463 958,3358 940,3332 832,3344 793,3349 792,3347 903,3274 886,3249 726,3354 743,3380 851,3367 892,3362 "/>
   <path class="fil0" d="M732 3180c-7,-7 -15,-10 -24,-11 -9,-1 -18,1 -26,5 -7,4 -13,9 -16,14 -4,5 -7,11 -8,18 -1,6 -1,12 0,19 2,7 4,13 8,20l28 55 170 -89 -33 -62c-3,-6 -8,-12 -13,-17 -5,-4 -12,-8 -18,-10 -6,-2 -13,-2 -20,-2 -7,1 -15,4 -21,7 -11,6 -18,13 -23,21 -5,9 -6,20 -3,32l-1 0zm54 -28c4,0 8,1 12,3 3,1 7,4 9,7 3,4 6,7 8,12l11 20 -55 29 -11 -20c-2,-5 -4,-9 -5,-13 0,-5 0,-9 0,-13 1,-4 3,-8 6,-11 2,-4 6,-7 11,-9 5,-3 10,-4 14,-5l0 0zm-64 48c7,3 12,8 16,15l10 20 -45 24 -11 -21c-2,-3 -3,-6 -4,-9 -1,-3 -1,-7 -1,-10 1,-3 2,-6 3,-9 2,-3 5,-6 9,-8 9,-5 17,-5 23,-2l0 0z"/>
   <path class="fil1 str0" d="M732 3180c-7,-7 -15,-10 -24,-11 -9,-1 -18,1 -26,5 -7,4 -13,9 -16,14 -4,5 -7,11 -8,18 -1,6 -1,12 0,19 2,7 4,13 8,20l28 55 170 -89 -33 -62c-3,-6 -8,-12 -13,-17 -5,-4 -12,-8 -18,-10 -6,-2 -13,-2 -20,-2 -7,1 -15,4 -21,7 -11,6 -18,13 -23,21 -5,9 -6,20 -3,32l-1 0zm54 -28c4,0 8,1 12,3 3,1 7,4 9,7 3,4 6,7 8,12l11 20 -55 29 -11 -20c-2,-5 -4,-9 -5,-13 0,-5 0,-9 0,-13 1,-4 3,-8 6,-11 2,-4 6,-7 11,-9 5,-3 10,-4 14,-5l0 0zm-64 48c7,3 12,8 16,15l10 20 -45 24 -11 -21c-2,-3 -3,-6 -4,-9 -1,-3 -1,-7 -1,-10 0,-3 2,-6 3,-9 2,-3 5,-6 9,-8 9,-5 17,-5 23,-2l0 0z"/>
   <polygon class="fil0 str0" points="725,3058 601,3109 613,3138 790,3066 778,3037 669,3027 630,3024 629,3023 752,2973 741,2945 563,3017 575,3045 684,3054 725,3057 "/>
   <path class="fil0" d="M538 2841l131 -37 19 67c-5,-2 -10,-3 -15,-3 -5,-1 -11,-1 -18,0 -7,1 -15,2 -24,4 -8,2 -19,4 -31,7l-48 11 -14 -49zm153 -61l43 -13 -8 -28 -69 18c0,3 1,5 1,8 1,2 2,5 2,7l-158 45 31 108 75 -17c14,-4 26,-6 35,-8 10,-1 18,-2 25,-2 7,0 13,0 18,2 4,1 9,4 13,7l5 13 68 -20 -8 -27 -44 11 -29 -104z"/>
   <path class="fil1 str0" d="M538 2841l131 -37 19 67c-5,-2 -10,-3 -15,-3 -5,-1 -11,-1 -18,0 -7,1 -15,2 -24,4 -8,2 -19,4 -31,7l-48 11 -14 -49zm153 -61l43 -13 -8 -28 -69 18c0,0 1,8 1,8 0,0 2,7 2,7l-158 45 31 108 75 -17c14,-4 26,-6 35,-8 10,-1 18,-2 25,-2 7,0 13,0 18,2 4,1 9,4 13,7l5 13 68 -20 -8 -27 -44 11 -29 -104z"/>
   <path class="fil0" d="M560 2663l27 5 1 1 -46 23 -59 29 5 34c21,-11 41,-23 61,-34 21,-11 41,-22 62,-33l7 -14c1,0 2,0 3,0 1,0 2,1 3,1 4,0 8,2 11,3 3,2 6,4 8,6 2,3 4,6 5,9 2,4 3,8 5,12l24 -6c-2,-10 -4,-18 -7,-24 -3,-6 -7,-12 -12,-16 -6,-4 -13,-7 -22,-10 -8,-3 -20,-5 -34,-8 -23,-4 -46,-8 -69,-12 -22,-4 -45,-8 -68,-12l5 33 90 13z"/>
   <path class="fil1 str0" d="M560 2663l27 5 1 1 -46 23 -59 29 5 34c21,-11 41,-23 61,-34 21,-11 41,-22 62,-33l7 -14c0,0 3,0 3,0 0,0 3,1 3,1 4,0 8,2 11,3 3,2 6,4 8,6 2,3 4,6 5,9 2,4 3,8 5,12l24 -6c-2,-10 -4,-18 -7,-24 -3,-6 -7,-12 -12,-16 -6,-4 -13,-7 -22,-10 -8,-3 -20,-5 -34,-8 -23,-4 -46,-8 -69,-12 -22,-4 -45,-8 -68,-12l5 33 90 13z"/>
   <path class="fil0 str0" d="M640 2430c-31,12 -62,24 -93,36 -31,12 -62,23 -93,35l3 38 195 38 -3 -34 -51 -9 -4 -52c8,-3 16,-6 24,-9 8,-3 17,-6 25,-9l-3 -34zm-151 87c6,-2 12,-4 18,-6 6,-2 12,-4 18,-6l43 -14 3 39c-7,-1 -15,-2 -22,-4 -8,-1 -15,-2 -23,-3 -6,-1 -12,-2 -18,-3 -6,-1 -13,-1 -19,-2l0 -1z"/>
   <path class="fil0 str0" d="M476 2297l165 3 0 -33 -191 -3 -2 109 83 2c16,0 29,1 39,2 10,1 19,3 25,6 7,3 12,7 17,11 5,5 9,10 14,17l22 -13c-5,-9 -10,-17 -16,-24 -6,-7 -13,-12 -22,-17 -10,-4 -21,-7 -34,-9 -13,-3 -29,-4 -47,-4l-53 -1 0 -46z"/>
   <path class="fil0" d="M454 2200l191 21 6 -60c1,-6 1,-12 0,-20 0,-7 -3,-15 -6,-22 -4,-6 -9,-12 -16,-18 -7,-5 -16,-8 -28,-10 -12,-1 -22,0 -30,3 -7,4 -13,8 -18,14 -5,6 -8,12 -10,19 -3,7 -4,14 -4,19l-4 30 -77 -9 -4 33zm168 -14l-61 -7 3 -23c0,-4 1,-9 2,-13 2,-4 4,-7 6,-10 3,-4 6,-6 10,-7 4,-2 10,-3 15,-2 6,1 11,3 15,5 4,2 7,5 9,9 2,3 3,7 4,11 0,3 1,7 0,10l-3 27z"/>
   <path class="fil1 str0" d="M454 2200l191 21 6 -60c0,-6 1,-12 0,-20 0,-7 -3,-15 -6,-22 -4,-6 -9,-12 -16,-18 -7,-5 -16,-8 -28,-10 -12,-1 -22,0 -30,3 -7,4 -13,8 -18,14 -5,6 -8,12 -10,19 -3,7 -4,14 -4,19l-4 30 -77 -9 -4 33zm168 -14l-61 -7 3 -23c0,-4 1,-9 2,-13 2,-4 4,-7 6,-10 3,-4 6,-6 10,-7 4,-2 10,-3 15,-2 6,1 11,3 15,5 4,2 7,5 9,9 2,3 4,7 4,11 0,3 0,7 0,10l-3 27z"/>
   <polygon class="fil0 str0" points="686,1964 692,1932 505,1891 498,1923 575,1940 562,2002 485,1985 478,2017 665,2058 672,2026 588,2008 601,1945 "/>
   <path class="fil0" d="M522 1828l182 61 19 -57c2,-6 3,-12 4,-20 1,-7 1,-15 -1,-22 -2,-8 -6,-15 -12,-21 -5,-7 -14,-12 -25,-16 -11,-4 -21,-5 -30,-3 -8,1 -15,5 -21,9 -6,5 -10,11 -14,17 -3,6 -6,12 -8,18l-9 27 -74 -25 -11 32zm168 22l-58 -20 7 -22c2,-4 3,-8 5,-12 2,-3 5,-6 8,-9 3,-2 7,-4 11,-5 5,0 10,0 15,2 6,2 11,5 14,8 3,3 5,7 6,11 2,3 2,7 2,11 0,4 -1,7 -2,11l-8 25zm58 -94l11 -31 -182 -61 -10 31 181 61z"/>
   <path class="fil1 str0" d="M522 1828l182 61 19 -57c2,-6 3,-12 4,-20 1,-7 1,-15 -1,-22 -2,-8 -6,-15 -12,-21 -5,-7 -14,-12 -25,-16 -11,-4 -21,-5 -30,-3 -8,1 -15,5 -21,9 -6,5 -10,11 -14,17 -3,6 -6,12 -8,18l-9 27 -74 -25 -11 32zm168 22l-58 -20 7 -22c2,-4 3,-8 5,-12 2,-3 5,-6 8,-9 3,-2 7,-4 11,-5 5,0 10,0 15,2 6,2 11,5 14,8 3,3 5,7 6,11 2,3 2,7 2,11 0,4 -1,7 -2,11l-8 25zm58 -94l11 -31 -182 -61 -10 31 181 61z"/>
   <path class="fil0" d="M598 1533c-2,2 -5,3 -7,4 -3,1 -6,1 -9,1 -2,0 -5,0 -8,-1l-8 18c4,2 9,3 14,4 5,1 10,0 16,-1 5,-1 10,-4 14,-7 5,-4 9,-8 12,-15 2,-6 4,-12 3,-17 0,-6 -1,-11 -4,-16 -2,-5 -5,-9 -9,-13 -3,-3 -7,-6 -12,-8l-8 17c2,1 5,3 6,5 2,3 4,5 5,7 1,3 1,5 2,8 0,3 -1,6 -2,8 -1,3 -3,5 -5,6l0 0zm141 97l-121 -57 -14 28 173 82 13 -28 -66 -87 -25 -31 1 -1 120 56 13 -27 -173 -82 -13 28 67 86 26 32 -1 1z"/>
   <path class="fil1 str0" d="M598 1533c-2,2 -5,3 -7,4 -3,1 -9,1 -9,1 0,0 -5,0 -8,-1l-8 18c4,2 9,3 14,4 5,1 10,0 16,-1 5,-1 10,-4 14,-7 5,-4 9,-8 12,-15 2,-6 3,-12 3,-17 0,-6 -1,-11 -4,-16 -2,-5 -5,-9 -9,-13 -3,-3 -7,-6 -12,-8l-8 17c2,1 5,3 6,5 2,3 4,5 5,7 1,3 2,8 2,8 0,0 -1,6 -2,8 -1,3 -3,5 -5,6l0 0zm141 97l-121 -57 -14 28 173 82 13 -28 -66 -87 -25 -31 1 -1 120 56 13 -27 -173 -82 -13 28 67 86 26 32 -1 1z"/>
   <polygon class="fil0 str0" points="954,1368 973,1341 814,1233 743,1338 901,1446 920,1419 784,1326 818,1275 "/>
   <path class="fil0" d="M972 1217c5,-5 9,-12 13,-19 3,-6 5,-14 6,-21 0,-8 -1,-15 -4,-23 -4,-8 -10,-16 -20,-23 -10,-9 -19,-13 -27,-15 -8,-1 -16,-1 -23,2 -7,2 -13,6 -18,11 -5,5 -9,9 -13,14l-34 40 148 123 21 -26 -60 -49 11 -14zm-67 -56c3,-3 5,-5 8,-8 3,-2 6,-4 9,-5 3,-1 7,0 11,1 5,1 9,3 14,7 5,5 9,9 11,13 2,4 3,8 3,12 0,4 -1,7 -3,11 -2,3 -5,7 -8,10l-9 12 -47 -39 11 -14z"/>
   <path class="fil1 str0" d="M972 1217c5,-5 9,-12 13,-19 3,-6 6,-14 6,-21 0,-8 -1,-15 -4,-23 -4,-8 -10,-16 -20,-23 -10,-9 -19,-13 -27,-15 -8,-1 -16,-1 -23,2 -7,2 -13,6 -18,11 -5,5 -9,9 -13,14l-34 40 148 123 21 -26 -60 -49 11 -14zm-67 -56c3,-3 5,-5 8,-8 3,-2 6,-4 9,-5 3,-1 7,0 11,1 5,1 9,3 14,7 5,5 9,9 11,13 2,4 3,8 3,12 0,4 -1,7 -3,11 -2,3 -5,7 -8,10l-9 12 -47 -39 11 -14z"/>
   <polygon class="fil0 str0" points="1101,1187 1175,1112 1156,1093 1104,1145 1062,1103 1107,1058 1088,1039 1043,1084 1007,1049 1058,997 1038,978 964,1053 "/>
   <path class="fil0" d="M1184 888l87 105 -54 45c0,-6 -1,-11 -3,-16 -1,-5 -4,-10 -7,-16 -4,-6 -8,-13 -14,-20 -5,-7 -11,-16 -19,-26l-30 -39 40 -33zm118 115l29 34 23 -19 -46 -55c-2,1 -4,3 -6,4 -2,2 -4,4 -6,5l-105 -126 -86 72 46 61c9,11 16,21 21,29 6,9 10,16 13,22 3,6 4,12 5,17 0,5 0,10 -1,15l-10 10 45 54 23 -19 -29 -35 84 -69z"/>
   <path class="fil1 str0" d="M1184 888l87 105 -54 45c0,-6 -1,-11 -3,-16 -1,-5 -4,-10 -7,-16 -4,-6 -8,-13 -14,-20 -5,-7 -11,-16 -19,-26l-30 -39 40 -33zm118 115l29 34 23 -19 -46 -55c-2,1 -4,3 -6,4 -2,2 -4,4 -6,5l-105 -126 -86 72 46 61c9,11 16,21 21,29 6,9 10,16 13,22 3,6 5,12 5,17 0,5 0,10 -1,15l-10 10 45 54 23 -19 -29 -35 84 -69z"/>
   <polygon class="fil0 str0" points="1437,908 1464,890 1358,731 1252,801 1358,961 1385,942 1294,805 1346,771 "/>
   <path class="fil0" d="M1509 776c7,-4 13,-8 19,-13 6,-5 11,-11 14,-18 3,-6 5,-14 5,-22 -1,-9 -4,-19 -9,-29 -7,-12 -13,-19 -20,-24 -7,-4 -15,-7 -22,-7 -7,0 -14,1 -21,4 -6,2 -12,5 -17,7l-47 25 91 169 29 -15 -37 -69 15 -8zm-40 -77c3,-2 6,-3 10,-5 3,-1 6,-1 10,-1 3,1 7,2 10,5 4,2 7,6 10,12 3,6 5,12 6,16 0,5 -1,9 -2,12 -2,4 -4,6 -7,9 -4,2 -7,5 -11,7l-13 7 -29 -54 16 -8z"/>
   <path class="fil1 str0" d="M1509 776c7,-4 13,-8 19,-13 6,-5 11,-11 14,-18 3,-6 5,-14 5,-22 0,-9 -4,-19 -9,-29 -7,-12 -13,-19 -20,-24 -7,-4 -15,-7 -22,-7 -7,0 -14,1 -21,4 -6,2 -12,5 -17,7l-47 25 91 169 29 -15 -37 -69 15 -8zm-40 -77c3,-2 6,-3 10,-5 3,-1 6,-1 10,-1 3,1 7,2 10,5 4,2 7,6 10,12 3,6 6,12 6,16 0,5 -1,9 -2,12 -2,4 -4,6 -7,9 -4,2 -7,5 -11,7l-13 7 -29 -54 16 -8z"/>
   <polygon class="fil0 str0" points="1647,732 1595,608 1566,620 1640,796 1669,784 1677,675 1680,636 1681,635 1732,758 1760,746 1687,569 1658,581 1650,690 1648,731 "/>
   <polygon class="fil0 str0" points="1893,704 1924,694 1869,511 1838,520 1861,596 1800,614 1777,539 1745,548 1801,732 1832,722 1807,640 1868,621 "/>
   <polygon class="fil0 str0" points="1989,622 1963,490 1932,496 1969,683 1999,677 2030,572 2040,535 2042,534 2067,664 2097,659 2061,471 2031,477 2001,582 1990,622 "/>
   <polygon class="fil0 str0" points="2214,559 2202,535 2165,458 2126,461 2141,652 2172,649 2161,510 2162,510 2172,530 2207,601 2228,600 2252,524 2258,503 2259,502 2271,642 2302,639 2286,448 2247,451 2224,532 2215,559 "/>
   <path class="fil0 str0" d="M2482 643c-9,-33 -17,-65 -25,-97 -9,-32 -17,-64 -25,-96l-38 -1 -59 190 34 1 14 -50 52 1c3,9 5,17 7,25 1,9 3,17 6,26l34 1zm-69 -160c1,6 2,12 3,19 1,6 3,12 4,18l10 45 -40 -2c2,-7 4,-14 6,-21 2,-8 4,-15 6,-22 2,-7 3,-13 5,-19 1,-6 3,-12 4,-18l2 0z"/>
   <polygon class="fil0 str0" points="2592,490 2636,495 2639,468 2520,454 2517,481 2559,486 2541,649 2573,653 "/>
   <polygon class="fil0 str0" points="2652,664 2756,685 2761,658 2690,644 2702,586 2765,598 2770,572 2707,559 2717,509 2789,524 2794,497 2690,476 "/>
   <path class="fil0 str0" d="M2934 564l-47 158 32 10 55 -184 -105 -32 -24 80c-5,15 -9,28 -13,37 -4,9 -8,17 -13,22 -4,6 -9,10 -15,14 -5,3 -12,6 -20,9l7 24c10,-2 19,-5 27,-8 8,-4 16,-10 22,-18 7,-7 13,-17 19,-29 6,-12 11,-27 16,-45l16 -51 43 13z"/>
   <path class="fil0" d="M3035 570l-74 177 56 23c6,2 12,4 20,5 7,2 15,2 22,0 8,-1 15,-5 22,-10 7,-5 13,-13 17,-24 5,-11 6,-21 5,-30 -1,-8 -3,-15 -8,-21 -4,-6 -9,-11 -15,-15 -6,-4 -12,-7 -18,-9l-27 -12 30 -72 -30 -12zm-33 165l23 -56 22 8c3,2 7,4 11,6 4,3 6,6 8,9 3,3 4,7 5,11 0,5 -1,10 -3,15 -3,6 -6,10 -9,13 -3,3 -7,5 -11,6 -4,1 -8,1 -11,1 -4,-1 -8,-1 -11,-3l-24 -10z"/>
   <path class="fil1 str0" d="M3035 570l-74 177 56 23c6,2 12,4 20,5 7,2 15,2 22,0 8,-1 15,-5 22,-10 7,-5 13,-13 17,-24 5,-11 6,-21 5,-30 -1,-8 -3,-15 -8,-21 -4,-6 -9,-11 -15,-15 -6,-4 -12,-7 -18,-9l-27 -12 30 -72 -30 -12zm-33 165l23 -56 22 8c3,2 7,4 11,6 4,3 6,6 8,9 3,3 5,7 5,11 0,5 -1,10 -3,15 -3,6 -6,10 -9,13 -3,3 -7,5 -11,6 -4,1 -8,1 -11,1 -4,-1 -8,-1 -11,-3l-24 -10z"/>
   <path class="fil0 str0" d="M3502 1069c10,2 20,1 30,-2 9,-3 19,-9 29,-17 9,-8 19,-17 28,-29 10,-11 18,-22 24,-33 6,-11 10,-22 12,-32 1,-10 0,-19 -3,-28 -4,-10 -10,-18 -20,-26 -10,-8 -19,-13 -29,-15 -9,-2 -19,-2 -29,1 -9,3 -19,9 -29,16 -10,8 -20,18 -29,29 -10,11 -18,22 -24,33 -6,11 -10,21 -12,32 -2,10 -1,20 3,29 3,9 10,18 20,26 10,9 19,14 29,16l0 0zm92 -132c1,6 0,12 -2,18 -3,6 -7,13 -12,20 -5,8 -11,15 -18,23 -7,9 -13,16 -20,22 -6,7 -13,11 -18,15 -6,3 -12,5 -18,4 -5,1 -11,-2 -16,-6 -5,-5 -8,-10 -9,-15 -1,-5 0,-11 2,-18 2,-6 6,-13 11,-20 5,-7 12,-15 19,-24 7,-8 13,-15 19,-21 7,-6 13,-11 19,-15 6,-3 11,-5 17,-5 6,0 11,3 16,7 6,5 9,10 10,15l0 0z"/>
   <polygon class="fil0 str0" points="3556,1123 3579,1146 3696,1031 3747,1083 3766,1064 3693,989 "/>
   <path class="fil0" d="M3745 1214c5,6 11,11 17,16 6,5 13,9 20,11 7,1 15,1 23,0 8,-2 17,-7 27,-15 10,-8 16,-16 19,-24 3,-8 4,-16 3,-23 -2,-7 -4,-14 -8,-19 -4,-6 -7,-12 -11,-16l-34 -41 -147 122 21 25 60 -49 10 13zm68 -54c3,2 5,5 7,8 1,4 2,7 3,10 0,4 -1,7 -3,11 -2,4 -5,8 -10,12 -5,5 -10,7 -15,9 -4,1 -8,1 -12,0 -3,0 -7,-2 -10,-5 -3,-3 -6,-6 -9,-9l-9 -12 47 -38 11 14z"/>
   <path class="fil1 str0" d="M3745 1214c5,6 11,11 17,16 6,5 13,9 20,11 7,1 15,1 23,0 8,-2 17,-7 27,-15 10,-8 16,-16 19,-24 3,-8 4,-16 3,-23 -2,-7 -4,-14 -8,-19 -4,-6 -7,-12 -11,-16l-34 -41 -147 122 21 25 60 -49 10 13zm68 -54c3,2 5,5 7,8 1,4 3,7 3,10 0,4 -1,7 -3,11 -2,4 -5,8 -10,12 -5,5 -10,7 -15,9 -4,1 -8,1 -12,0 -3,0 -7,-2 -10,-5 -3,-3 -6,-6 -9,-9l-9 -12 47 -38 11 14z"/>
   <polygon class="fil0 str0" points="3804,1425 3823,1452 3981,1345 3963,1318 3898,1362 3862,1309 3927,1265 3909,1238 3750,1345 3769,1372 3840,1324 3876,1377 "/>
   <polygon class="fil0 str0" points="3910,1491 4029,1427 4014,1400 3846,1490 3860,1518 3970,1516 4009,1514 4010,1516 3893,1578 3908,1606 4076,1515 4062,1488 3952,1490 3911,1492 "/>
   <polygon class="fil0 str0" points="3962,1733 3975,1763 4152,1690 4103,1572 3926,1645 3939,1676 4091,1613 4114,1670 "/>
   <polygon class="fil0 str0" points="4044,1895 4019,1901 4045,2007 4070,2001 4061,1963 4215,1925 4188,1866 4168,1871 4176,1902 4053,1932 "/>
   <polygon class="fil0 str0" points="4080,2056 4055,2060 4070,2167 4096,2164 4090,2125 4248,2102 4226,2041 4206,2043 4211,2076 4086,2094 "/>
   <path class="fil0" d="M4164 2323c7,-4 13,-8 17,-14 5,-5 8,-11 11,-19 2,-7 2,-15 2,-24 0,-4 -1,-8 -1,-11 -1,-3 -2,-6 -3,-8l42 1 3 67 26 -1 -5 -93 -87 -3 -7 16c1,4 2,8 3,12 2,4 2,8 2,13 1,11 -2,20 -7,26 -5,6 -13,10 -24,10 -6,1 -11,0 -16,-2 -4,-2 -8,-4 -10,-8 -3,-3 -6,-7 -7,-11 -2,-4 -3,-9 -3,-13 0,-13 2,-27 9,-40l-23 -10c-4,7 -8,15 -10,24 -2,9 -3,20 -2,32 0,9 2,17 5,25 3,8 7,14 12,20 6,5 12,9 20,12 8,3 18,5 29,4 9,0 17,-2 24,-5l0 0z"/>
   <path class="fil1 str0" d="M4164 2323c7,-4 13,-8 17,-14 5,-5 8,-11 11,-19 2,-7 2,-15 2,-24 0,-4 -1,-8 -1,-11 0,-3 -2,-6 -3,-8l42 1 3 67 26 -1 -5 -93 -87 -3 -7 16c1,4 2,8 3,12 2,4 2,8 2,13 0,11 -2,20 -7,26 -5,6 -13,10 -24,10 -6,1 -11,0 -16,-2 -4,-2 -8,-4 -10,-8 -3,-3 -6,-7 -7,-11 -2,-4 -3,-9 -3,-13 0,-13 2,-27 9,-40l-23 -10c-4,7 -8,15 -10,24 -2,9 -2,20 -2,32 0,9 2,17 5,25 3,8 7,14 12,20 6,5 12,9 20,12 8,3 18,5 29,4 9,0 17,-2 24,-5l0 0z"/>
   <polygon class="fil0 str0" points="4080,2393 4079,2426 4233,2496 4257,2497 4261,2389 4236,2387 4232,2463 "/>
   <polygon class="fil0 str0" points="4070,2556 4065,2588 4212,2672 4235,2675 4250,2568 4225,2564 4214,2639 "/>
   <path class="fil0" d="M4055 2832l23 5 5 -22 118 28 7 -31 -99 -106 -23 -5 -18 78 -37 -9 -7 31 36 9 -5 22zm36 -47l11 -48c10,10 20,21 30,32 10,10 19,21 30,32 0,0 0,0 -1,0 0,0 0,0 0,0l-70 -16z"/>
   <path class="fil1 str0" d="M4055 2832l23 5 5 -22 118 28 7 -31 -99 -106 -23 -5 -18 78 -37 -9 -7 31 36 9 -5 22zm36 -47l11 -48c10,10 20,21 30,32 10,10 19,21 30,32 0,0 -1,0 -1,0 0,0 0,0 0,0l-70 -16z"/>
   <path class="fil0 str0" d="M3983 2943c2,9 6,17 13,24 6,8 14,14 25,20 10,5 21,10 34,14 13,5 25,8 36,9 12,2 22,2 32,0 9,-2 17,-6 24,-12 7,-6 13,-15 17,-26 3,-12 4,-22 3,-31 -2,-9 -7,-17 -13,-25 -6,-7 -14,-14 -25,-20 -10,-5 -21,-10 -33,-15 -13,-4 -25,-7 -37,-9 -11,-2 -22,-1 -32,1 -9,2 -17,6 -24,12 -8,6 -13,15 -17,26 -4,12 -5,23 -3,32l0 0zm148 35c-4,2 -10,4 -17,4 -6,0 -14,-1 -22,-3 -9,-2 -17,-5 -27,-8 -10,-4 -18,-7 -26,-11 -8,-3 -15,-7 -20,-11 -5,-4 -9,-9 -11,-14 -2,-5 -2,-10 0,-16 3,-6 6,-11 11,-13 4,-3 10,-4 16,-5 7,0 14,1 23,3 8,2 17,5 27,8 9,3 18,6 26,10 8,4 14,7 19,11 6,4 10,9 12,14 2,5 2,11 0,17 -3,6 -6,11 -11,14l0 0z"/>
   <path class="fil0 str0" d="M3921 3093c1,10 4,18 10,26 5,8 13,15 23,22 9,6 20,12 33,18 12,5 24,9 35,12 11,3 22,3 31,2 10,-1 18,-4 26,-9 8,-6 14,-14 19,-25 4,-11 6,-20 5,-30 -1,-9 -4,-18 -10,-26 -5,-8 -13,-15 -22,-22 -10,-7 -21,-13 -32,-18 -13,-5 -25,-10 -36,-13 -11,-2 -22,-3 -32,-2 -9,1 -18,4 -25,10 -8,5 -15,13 -19,24 -6,12 -7,22 -6,31l0 0zm144 49c-5,2 -11,3 -17,3 -7,-1 -14,-3 -22,-6 -9,-2 -17,-6 -26,-10 -10,-4 -18,-8 -26,-13 -7,-4 -13,-9 -18,-13 -5,-5 -8,-10 -9,-15 -2,-5 -1,-10 1,-16 3,-6 7,-10 11,-12 5,-3 11,-3 18,-3 6,1 13,2 22,5 8,3 17,6 26,11 9,4 17,8 25,12 7,4 13,8 18,13 5,5 9,9 10,15 2,5 1,11 -1,17 -3,6 -7,10 -12,12l0 0z"/>
   <path class="fil0" d="M3844 3237c0,10 3,19 8,27 5,8 12,16 21,24 9,7 19,14 31,21 11,6 23,11 34,15 11,4 21,6 31,6 9,-1 18,-3 26,-8 8,-4 15,-12 21,-22 6,-10 9,-20 9,-29 0,-10 -3,-19 -8,-27 -5,-9 -11,-17 -20,-24 -9,-8 -19,-15 -31,-21 -11,-7 -23,-12 -34,-16 -11,-4 -21,-6 -31,-6 -10,0 -19,3 -27,7 -8,5 -15,13 -21,23 -6,11 -9,21 -9,30l0 0zm139 63c-5,2 -11,2 -17,1 -7,-2 -14,-4 -22,-8 -8,-3 -16,-8 -24,-13 -9,-5 -17,-10 -24,-15 -8,-5 -13,-10 -18,-15 -4,-5 -6,-10 -7,-15 -1,-5 0,-11 3,-16 3,-6 7,-10 12,-11 5,-2 11,-2 17,-1 7,1 14,3 22,7 8,3 16,8 25,13 9,5 16,9 24,14 7,5 12,10 17,15 4,5 7,10 8,16 1,5 0,11 -3,16 -3,6 -7,10 -13,12l0 0z"/>
   <path class="fil1 str0" d="M3844 3237c0,10 3,19 8,27 5,8 12,16 21,24 9,7 19,14 31,21 11,6 23,11 34,15 11,4 21,6 31,6 9,-1 18,-3 26,-8 8,-4 15,-12 21,-22 6,-10 9,-20 9,-29 0,-10 -3,-19 -8,-27 -5,-9 -11,-17 -20,-24 -9,-8 -19,-15 -31,-21 -11,-7 -23,-12 -34,-16 -11,-4 -21,-6 -31,-6 -10,0 -19,3 -27,7 -8,5 -15,13 -21,23 -6,11 -9,21 -9,30l0 0zm139 63c-5,2 -11,2 -17,1 -7,-2 -14,-4 -22,-8 -8,-3 -16,-8 -24,-13 -9,-5 -17,-10 -24,-15 -8,-5 -13,-10 -18,-15 -4,-5 -6,-10 -7,-15 -1,-5 0,-11 3,-16 3,-6 7,-10 12,-11 5,-2 11,-2 17,-1 7,1 14,3 22,7 8,3 16,8 25,13 9,5 16,9 24,14 7,5 12,10 17,15 4,5 7,10 8,16 1,5 0,11 -3,16 -3,6 -7,10 -13,12l0 0z"/>
   <path class="fil0" d="M3754 3374c-1,9 1,18 5,27 4,9 11,18 19,26 8,8 18,16 29,24 11,7 21,13 32,18 11,5 21,8 30,9 10,0 19,-1 28,-5 8,-4 16,-11 22,-20 7,-10 11,-19 12,-29 1,-9 -1,-18 -5,-27 -4,-9 -10,-18 -18,-26 -8,-9 -18,-17 -28,-24 -11,-8 -22,-14 -33,-19 -10,-5 -21,-8 -31,-9 -9,-1 -18,1 -27,5 -8,4 -16,11 -23,21 -7,10 -11,20 -12,29l0 0zm133 75c-5,2 -11,1 -18,-1 -6,-2 -13,-5 -20,-9 -8,-4 -16,-9 -24,-15 -8,-6 -16,-12 -22,-17 -7,-6 -12,-12 -16,-17 -4,-5 -6,-11 -6,-16 -1,-5 1,-10 4,-16 4,-5 8,-8 14,-9 5,-2 11,-2 17,0 6,2 13,5 21,9 7,5 15,10 24,15 8,6 15,11 22,17 6,6 11,11 15,17 5,5 7,10 7,16 1,5 -1,11 -5,16 -3,6 -8,9 -13,10l0 0z"/>
   <path class="fil1 str0" d="M3754 3374c-1,9 1,18 5,27 4,9 11,18 19,26 8,8 18,16 29,24 11,7 21,13 32,18 11,5 21,8 30,9 10,0 19,-1 28,-5 8,-4 16,-11 22,-20 7,-10 11,-19 12,-29 1,-9 -1,-18 -5,-27 -4,-9 -10,-18 -18,-26 -8,-9 -18,-17 -28,-24 -11,-8 -22,-14 -33,-19 -10,-5 -21,-8 -31,-9 -9,-1 -18,1 -27,5 -8,4 -16,11 -23,21 -7,10 -11,20 -12,29l0 0zm133 75c-5,2 -11,1 -18,-1 -6,-2 -13,-5 -20,-9 -8,-4 -16,-9 -24,-15 -8,-6 -16,-12 -22,-17 -7,-6 -12,-12 -16,-17 -4,-5 -6,-11 -6,-16 0,-5 1,-10 4,-16 4,-5 8,-8 14,-9 5,-2 11,-2 17,0 6,2 13,5 21,9 7,5 15,10 24,15 8,6 15,11 22,17 6,6 11,11 15,17 5,5 7,10 7,16 0,5 -1,11 -5,16 -3,6 -8,9 -13,10l0 0z"/>
   <path class="fil0" d="M3652 3501c-2,9 -1,18 3,28 3,9 8,18 16,27 7,9 16,18 26,26 10,9 20,16 30,22 11,6 20,9 30,11 9,2 19,1 27,-2 9,-3 18,-9 25,-18 8,-9 12,-18 14,-27 2,-10 1,-19 -2,-28 -3,-10 -8,-19 -16,-28 -7,-9 -16,-18 -26,-26 -10,-9 -20,-16 -30,-22 -10,-6 -20,-10 -30,-11 -9,-2 -19,-1 -27,2 -9,3 -18,9 -26,18 -8,9 -12,19 -14,28l0 0zm125 88c-5,0 -11,-1 -17,-3 -6,-3 -13,-6 -20,-11 -7,-5 -14,-11 -22,-17 -8,-7 -15,-14 -21,-20 -6,-6 -10,-12 -14,-18 -3,-6 -5,-11 -5,-16 0,-6 2,-11 7,-16 4,-4 8,-7 14,-8 5,-1 11,0 17,2 6,2 13,6 20,11 7,5 14,11 22,18 8,6 14,12 20,18 6,6 11,12 15,18 3,6 5,11 5,17 0,6 -2,11 -6,16 -5,5 -10,8 -15,9l0 0z"/>
   <path class="fil1 str0" d="M3652 3501c-2,9 -1,18 3,28 3,9 8,18 16,27 7,9 16,18 26,26 10,9 20,16 30,22 11,6 20,9 30,11 9,2 19,1 27,-2 9,-3 18,-9 25,-18 8,-9 12,-18 14,-27 2,-10 1,-19 -2,-28 -3,-10 -8,-19 -16,-28 -7,-9 -16,-18 -26,-26 -10,-9 -20,-16 -30,-22 -10,-6 -20,-10 -30,-11 -9,-2 -19,-1 -27,2 -9,3 -18,9 -26,18 -8,9 -12,19 -14,28l0 0zm125 88c-5,0 -11,-1 -17,-3 -6,-3 -13,-6 -20,-11 -7,-5 -14,-11 -22,-17 -8,-7 -15,-14 -21,-20 -6,-6 -10,-12 -14,-18 -3,-6 -5,-11 -5,-16 0,-6 2,-11 7,-16 4,-4 8,-7 14,-8 5,-1 11,0 17,2 6,2 13,6 20,11 7,5 14,11 22,18 8,6 14,12 20,18 6,6 11,12 15,18 3,6 5,11 5,17 0,6 -2,11 -6,16 -5,5 -10,8 -15,9l0 0z"/>
   <path class="fil0" d="M3539 3618c-3,9 -3,18 0,28 2,9 6,19 13,28 7,10 15,19 24,29 9,10 19,18 28,25 10,6 19,11 28,13 10,3 19,3 28,1 9,-2 18,-8 26,-16 9,-8 14,-17 17,-26 2,-9 2,-18 0,-28 -2,-9 -6,-19 -13,-28 -6,-10 -14,-20 -23,-29 -10,-10 -19,-18 -28,-25 -10,-7 -20,-12 -29,-14 -9,-3 -19,-3 -28,0 -9,2 -18,7 -26,15 -9,9 -15,18 -17,27l0 0zm116 99c-6,0 -11,-2 -17,-4 -6,-4 -12,-8 -19,-14 -6,-5 -13,-12 -20,-19 -7,-7 -13,-14 -19,-21 -5,-7 -9,-13 -12,-19 -3,-6 -4,-12 -3,-17 0,-5 3,-10 7,-15 5,-4 10,-7 15,-7 5,0 11,1 17,4 6,3 12,7 19,13 6,5 13,12 21,19 6,7 12,14 18,21 5,7 9,13 12,19 3,6 5,12 4,17 0,6 -3,11 -8,15 -5,5 -10,7 -15,8l0 0z"/>
   <path class="fil1 str0" d="M3539 3618c-3,9 -3,18 0,28 2,9 6,19 13,28 7,10 15,19 24,29 9,10 19,18 28,25 10,6 19,11 28,13 10,3 19,3 28,1 9,-2 18,-8 26,-16 9,-8 14,-17 17,-26 2,-9 2,-18 0,-28 -2,-9 -6,-19 -13,-28 -6,-10 -14,-20 -23,-29 -10,-10 -19,-18 -28,-25 -10,-7 -20,-12 -29,-14 -9,-3 -19,-3 -28,0 -9,2 -18,7 -26,15 -9,9 -15,18 -17,27l0 0zm116 99c-6,0 -11,-2 -17,-4 -6,-4 -12,-8 -19,-14 -6,-5 -13,-12 -20,-19 -7,-7 -13,-14 -19,-21 -5,-7 -9,-13 -12,-19 -3,-6 -3,-12 -3,-17 0,-5 3,-10 7,-15 5,-4 10,-7 15,-7 5,0 11,1 17,4 6,3 12,7 19,13 6,5 13,12 21,19 6,7 12,14 18,21 5,7 9,13 12,19 3,6 4,12 4,17 0,6 -3,11 -8,15 -5,5 -10,7 -15,8l0 0z"/>
   <path class="fil0 str0" d="M3415 3724c-4,8 -5,18 -3,27 2,10 5,20 11,30 5,10 12,20 21,31 8,10 17,19 26,27 8,7 17,13 26,16 9,4 19,5 28,3 9,-1 18,-6 28,-13 9,-7 15,-15 18,-24 4,-9 5,-18 3,-28 -1,-10 -4,-19 -10,-30 -5,-10 -12,-20 -20,-31 -9,-10 -18,-19 -26,-27 -9,-8 -18,-13 -27,-16 -9,-4 -18,-5 -28,-3 -9,1 -19,5 -28,13 -9,7 -16,16 -19,25l0 0zm106 109c-5,0 -11,-2 -16,-6 -6,-4 -12,-8 -18,-15 -6,-6 -12,-13 -18,-21 -6,-8 -12,-15 -17,-22 -5,-8 -8,-15 -10,-21 -2,-6 -3,-12 -2,-17 1,-5 4,-10 9,-14 5,-4 10,-6 16,-5 5,0 10,1 16,5 6,3 11,8 17,14 6,7 13,14 19,22 6,7 12,15 17,22 4,7 8,14 10,20 3,6 3,12 2,18 -1,5 -4,10 -9,14 -5,4 -10,6 -16,6l0 0z"/>
   <polygon class="fil0" points="1643,1491 1643,1810 1721,1810 1721,1301 1644,1301 1538,1623 1535,1623 1535,1301 1458,1301 1458,1810 1534,1810 1641,1491 "/>
   <path class="fil0" d="M1911 1810c43,0 74,-9 96,-27 21,-18 31,-46 31,-85 0,-17 -3,-33 -8,-47 -6,-14 -17,-25 -32,-31l-1 -1c12,-8 22,-18 29,-30 5,-12 8,-25 8,-39 0,-33 -9,-58 -29,-76 -20,-17 -50,-25 -92,-25l-104 0 0 361 102 0zm49 -100c0,6 -2,11 -6,15 -4,5 -8,8 -14,10 -6,3 -14,4 -25,4l-27 0 0 -88 27 0c18,0 29,3 37,10 6,8 10,18 10,30 0,7 -1,14 -2,19l0 0zm-14 -129c-7,7 -19,10 -37,10l-21 0 0 -74 27 0c15,1 26,5 32,11 7,5 10,14 10,26 0,12 -4,20 -11,27l0 0z"/>
   <path class="fil0" d="M2261 1782l0 28 79 0 0 -258c0,-39 -9,-67 -28,-84 -19,-16 -46,-25 -82,-25 -31,0 -56,8 -75,23 -20,16 -32,36 -39,63l72 22c2,-12 7,-21 15,-26 7,-5 14,-8 22,-8 13,0 24,3 29,9 5,7 7,15 7,26l0 39 -46 0c-20,0 -37,3 -51,10 -14,6 -25,15 -33,25 -8,11 -14,23 -18,37 -3,14 -5,28 -5,42 0,15 1,29 4,42 2,13 7,25 14,34 6,11 15,19 26,25 11,5 24,8 40,8 14,0 26,-3 38,-8 11,-5 21,-14 29,-25l2 1zm0 -87c0,14 -4,25 -10,33 -7,8 -17,12 -29,12 -11,0 -20,-3 -27,-10 -6,-7 -10,-17 -10,-29 0,-19 4,-32 14,-40 9,-7 20,-10 31,-10l31 0 0 44z"/>
   <polygon class="fil0" points="2650,1810 2650,1449 2571,1449 2571,1594 2501,1594 2501,1449 2422,1449 2422,1810 2501,1810 2501,1657 2571,1657 2571,1810 "/>
   <path class="fil0" d="M2778 1460c-18,12 -30,27 -37,46 -2,5 -4,14 -6,23 -1,10 -3,21 -3,32 -1,10 -2,22 -3,35 0,12 0,25 0,36 0,8 0,16 0,25 0,10 0,18 0,27 1,9 2,17 3,25 0,8 1,15 2,22 2,11 5,22 10,31 4,11 11,19 20,28 8,8 19,13 31,18 13,5 27,7 44,7 13,0 25,-1 37,-4 13,-2 25,-7 36,-13 11,-7 21,-17 29,-30 8,-12 13,-29 15,-49 1,-11 2,-22 3,-33 1,-11 1,-22 1,-33l0 -19c0,-14 0,-30 0,-47 -1,-17 -2,-33 -4,-47 -1,-14 -3,-26 -7,-38 -5,-12 -11,-22 -20,-31 -9,-9 -20,-16 -33,-21 -14,-5 -30,-7 -50,-7 -28,0 -51,6 -68,17l0 0zm95 72c2,4 4,8 5,13 2,8 3,21 4,37 0,16 0,33 0,49 0,10 0,19 0,28 0,10 0,18 -1,26 -1,8 -1,15 -2,20 0,6 -1,10 -2,12 -2,7 -6,13 -11,17 -6,5 -12,7 -20,7 -10,0 -18,-3 -23,-9 -5,-5 -10,-12 -12,-20 -2,-7 -3,-17 -3,-29 0,-13 0,-25 0,-38l0 -6c0,-14 0,-27 0,-38 0,-11 0,-21 0,-30 1,-8 3,-16 4,-23 2,-7 4,-13 8,-19 6,-9 15,-13 26,-13 13,0 22,5 27,16l0 0z"/>
   <path class="fil0" d="M3139 1810c43,0 75,-9 96,-27 21,-18 31,-46 31,-85 0,-17 -3,-33 -8,-47 -6,-14 -17,-25 -32,-31l-1 -1c13,-8 22,-18 29,-30 6,-12 9,-25 9,-39 0,-33 -10,-58 -30,-76 -19,-17 -50,-25 -92,-25l-104 0 0 361 102 0zm50 -100c-1,6 -3,11 -7,15 -3,5 -8,8 -14,10 -6,3 -14,4 -25,4l-27 0 0 -88 27 0c18,0 30,3 37,10 7,8 10,18 10,30 0,7 0,14 -1,19l0 0zm-15 -129c-6,7 -19,10 -36,10l-22 0 0 -74 27 0c16,1 27,5 33,11 6,5 9,14 9,26 0,12 -4,20 -11,27l0 0z"/>
   <polygon class="fil0" points="1948,2165 1948,2484 2026,2484 2026,1974 1949,1974 1843,2297 1840,2297 1840,1974 1763,1974 1763,2484 1839,2484 1946,2165 "/>
   <path class="fil0" d="M2216 2484c43,0 75,-9 96,-28 21,-18 31,-46 31,-84 0,-17 -2,-33 -8,-47 -5,-14 -16,-25 -32,-32l-1 0c13,-8 22,-18 29,-30 6,-12 9,-25 9,-40 0,-33 -10,-58 -29,-75 -20,-17 -51,-26 -93,-26l-104 0 0 362 102 0zm50 -101c-1,6 -3,11 -7,16 -3,4 -8,8 -14,10 -5,2 -13,4 -24,4l-28 0 0 -89 28 0c17,0 29,4 36,11 7,7 10,18 10,30 0,7 0,13 -1,18l0 0zm-15 -128c-6,6 -19,10 -36,10l-22 0 0 -74 28 0c15,1 26,4 32,10 6,6 9,15 9,26 0,12 -3,21 -11,28l0 0z"/>
   <path class="fil0" d="M2567 2456l0 28 79 0 0 -259c0,-39 -10,-66 -28,-83 -19,-17 -47,-25 -83,-25 -31,0 -55,7 -74,23 -20,15 -33,36 -39,63l71 22c3,-13 8,-22 15,-27 7,-5 15,-7 22,-7 14,0 24,3 29,9 5,6 8,14 8,25l0 40 -47 0c-20,0 -37,3 -51,9 -14,7 -25,16 -33,26 -8,11 -14,23 -17,36 -4,14 -6,28 -6,42 0,16 1,29 4,43 3,13 8,24 14,34 7,10 16,18 27,24 11,6 24,9 40,9 13,0 25,-3 37,-8 12,-5 21,-14 29,-25l3 1zm0 -87c0,14 -4,25 -11,33 -6,8 -16,12 -29,12 -11,0 -20,-4 -26,-10 -7,-8 -11,-17 -11,-29 0,-20 5,-33 14,-40 10,-7 20,-11 31,-11l32 0 0 45z"/>
   <polygon class="fil0" points="2956,2484 2956,2122 2877,2122 2877,2268 2807,2268 2807,2122 2728,2122 2728,2484 2807,2484 2807,2331 2877,2331 2877,2484 "/>
   <polygon class="fil0" points="1329,2838 1329,3157 1407,3157 1407,2648 1330,2648 1224,2970 1221,2970 1221,2648 1144,2648 1144,3157 1220,3157 1327,2838 "/>
   <path class="fil0" d="M1597 3157c43,0 75,-9 96,-27 21,-18 32,-46 32,-85 0,-17 -3,-33 -9,-47 -5,-14 -16,-25 -32,-31l0 -1c12,-8 22,-17 28,-30 6,-12 9,-25 9,-39 0,-33 -10,-58 -29,-76 -20,-17 -51,-25 -93,-25l-103 0 0 361 101 0zm50 -100c-1,6 -3,11 -7,15 -3,5 -8,8 -14,10 -5,3 -13,4 -24,4l-27 0 0 -88 27 0c17,0 29,3 36,11 7,7 10,17 10,30 0,6 0,13 -1,18l0 0zm-15 -129c-6,7 -19,10 -36,10l-21 0 0 -74 27 0c15,1 26,5 32,11 6,5 9,14 9,26 0,12 -3,20 -11,27l0 0z"/>
   <path class="fil0" d="M1948 3129l0 28 79 0 0 -258c0,-39 -10,-67 -28,-84 -19,-16 -47,-25 -83,-25 -31,0 -55,8 -74,23 -20,16 -33,36 -39,63l72 22c2,-12 7,-21 14,-26 7,-5 15,-8 22,-8 14,0 24,3 29,9 5,7 8,15 8,26l0 39 -46 0c-21,0 -38,3 -52,10 -14,6 -25,15 -33,25 -8,11 -13,23 -17,37 -4,14 -6,28 -6,42 0,15 1,29 4,42 3,13 8,25 14,34 7,11 16,19 27,25 11,5 24,8 40,8 13,0 25,-3 37,-8 12,-5 21,-14 29,-25l3 1zm0 -87c0,14 -4,25 -11,33 -6,8 -16,13 -29,13 -11,0 -20,-4 -26,-11 -7,-7 -10,-17 -10,-29 0,-19 4,-32 13,-39 10,-8 20,-11 31,-11l32 0 0 44z"/>
   <polygon class="fil0" points="2337,3157 2337,2796 2258,2796 2258,2941 2188,2941 2188,2796 2109,2796 2109,3157 2188,3157 2188,3004 2258,3004 2258,3157 "/>
   <path class="fil0" d="M2464 2807c-17,12 -30,27 -36,46 -3,6 -5,14 -6,23 -2,10 -3,21 -4,32 -1,11 -1,22 -2,35 -1,12 -1,25 -1,36 0,8 0,16 0,25 0,10 0,18 1,27 1,9 1,17 2,25 1,8 2,15 2,22 2,11 5,22 10,31 5,11 11,19 20,28 8,8 19,13 32,18 12,5 27,7 44,7 12,0 24,-1 37,-4 12,-2 25,-7 36,-13 11,-7 20,-17 28,-30 8,-12 13,-29 16,-49 0,-11 2,-22 3,-33 0,-11 0,-22 0,-33l0 -19c0,-14 0,-30 0,-47 0,-17 -1,-33 -3,-47 -1,-14 -4,-26 -8,-38 -4,-12 -11,-22 -19,-31 -9,-8 -20,-16 -33,-21 -14,-5 -30,-7 -50,-7 -29,0 -51,6 -69,17l0 0zm95 72c2,4 5,8 5,13 3,8 3,21 4,37 1,16 1,33 1,50 0,9 0,18 0,27 -1,10 -1,18 -2,26 0,8 0,15 -1,20 -1,6 -2,10 -2,12 -3,7 -6,13 -11,17 -6,5 -13,7 -21,7 -9,0 -17,-3 -23,-9 -5,-5 -9,-12 -11,-20 -2,-7 -3,-17 -3,-29 -1,-13 -1,-25 -1,-38l0 -6c0,-14 0,-27 0,-38 0,-11 0,-21 1,-29 1,-9 2,-17 4,-24 2,-6 4,-13 8,-19 5,-9 14,-13 25,-13 13,0 22,5 27,16l0 0z"/>
   <path class="fil0" d="M2826 3157c43,0 74,-9 95,-27 22,-18 32,-46 32,-85 0,-17 -3,-33 -8,-47 -6,-14 -17,-25 -32,-31l-1 -1c12,-8 22,-17 28,-30 6,-12 9,-25 9,-39 0,-33 -9,-58 -29,-76 -20,-17 -51,-25 -92,-25l-104 0 0 361 102 0zm49 -100c0,6 -3,11 -6,15 -4,5 -8,8 -14,10 -6,3 -14,4 -25,4l-27 0 0 -88 27 0c18,0 29,3 37,11 6,7 10,17 10,30 0,6 -1,13 -2,18l0 0zm-14 -129c-7,7 -19,10 -37,10l-21 0 0 -74 27 0c15,1 26,5 32,11 7,5 10,14 10,26 0,12 -4,20 -11,27l0 0z"/>
   <polygon class="fil0" points="3278,3157 3278,2796 3199,2796 3111,3013 3109,3013 3109,2796 3032,2796 3032,3157 3109,3157 3198,2948 3199,2948 3199,3157 "/>
   <path class="fil0" d="M3499 3157l80 0 0 -361 -79 0 0 147c-15,8 -27,12 -39,12 -22,0 -32,-12 -32,-36l0 -123 -79 0 0 147c0,29 7,49 21,63 13,14 32,22 57,22 3,0 8,-1 14,-2 5,-1 11,-1 18,-3 6,-1 13,-4 20,-6 7,-2 13,-4 19,-7l0 147z"/>
   <path class="fil0" d="M4360 2360c0,-1103 -897,-2000 -2000,-2000 -1103,0 -2000,897 -2000,2000 0,694 366,1344 958,1706l23 -13c-591,-357 -958,-1003 -958,-1693 0,-1090 887,-1977 1977,-1977 1090,0 1977,887 1977,1977 0,690 -367,1336 -958,1693l23 13c591,-362 958,-1012 958,-1706z"/>
   <path class="fil0" d="M4039 2360c0,-926 -753,-1679 -1679,-1679 -926,0 -1679,753 -1679,1679 0,670 392,1267 1002,1536 11,-4 21,-8 32,-11 -615,-261 -1011,-856 -1011,-1525 0,-913 743,-1656 1656,-1656 913,0 1656,743 1656,1656 0,669 -396,1264 -1011,1525 11,3 21,7 32,11 610,-269 1002,-866 1002,-1536z"/>
   <path class="fil0" d="M1783 4101c-9,-27 -34,-36 -66,-25l-22 7 -11 -34 56 -18 -2 -25 -91 30 47 142 52 -17c33,-11 46,-33 37,-60l0 0zm-31 10c4,14 -2,24 -17,28l-19 7 -13 -40 18 -6c16,-6 26,-2 31,11l0 0z"/>
   <polygon class="fil0" points="1950,4081 1887,4096 1878,4056 1930,4043 1925,4020 1872,4032 1864,3997 1919,3985 1920,3960 1828,3981 1862,4127 1956,4105 "/>
   <path class="fil0" d="M2110 3929l-90 13 5 66c2,26 1,43 -1,51 -2,8 -8,13 -18,14l9 23c6,0 11,-1 15,-3 13,-5 21,-16 24,-33 1,-9 1,-26 0,-51l-3 -47 31 -5 17 124 31 -4 -20 -148z"/>
   <path class="fil0" d="M2282 3941c1,-5 3,-13 5,-24l-94 5 8 149 32 -2c-1,-14 -2,-34 -4,-62l-3 -63 56 -3z"/>
   <path class="fil0" d="M2467 3994c1,-52 -19,-78 -61,-80 -42,-1 -63,24 -65,76 -1,52 19,79 61,80 41,1 63,-24 65,-76l0 0zm-33 -1c-1,36 -10,54 -32,53 -23,-1 -30,-22 -28,-55 1,-35 9,-54 31,-53 23,1 30,21 29,55l0 0z"/>
   <path class="fil0" d="M2648 3988c2,-16 -2,-29 -11,-38 -9,-10 -21,-16 -37,-18l-50 -6 -18 148 31 4c3,-22 5,-39 6,-51l14 2c18,2 33,0 44,-8 12,-7 19,-18 21,-33l0 0zm-33 -5c-2,18 -13,24 -28,22l-15 -2 6 -49 15 2c17,2 24,11 22,27l0 0z"/>
   <path class="fil0" d="M2826 4049c11,-51 -4,-81 -45,-89 -41,-9 -67,12 -77,62 -11,51 4,81 45,90 41,8 66,-13 77,-63l0 0zm-32 -7c-7,35 -20,51 -41,47 -22,-6 -25,-28 -18,-60 8,-34 20,-51 41,-46 22,4 26,25 18,59l0 0z"/>
   <path class="fil0" d="M2998 4154l39 -120 -89 -28 -21 50c-12,31 -25,52 -38,62l-15 -4 -17 53 25 8c1,-3 2,-8 5,-15l5 -16 91 30 -10 31 25 8 17 -54 -17 -5zm-30 -10l-48 -16c9,-8 19,-27 31,-55l16 -36 32 11 -31 96z"/>
   <path class="fil2" d="M336 1613c-5,-2 -12,-5 -22,-8l-61 -24 -10 26 125 48 10 -26 -47 -55c-8,-9 -14,-17 -20,-22 0,0 0,-1 0,-1l21 9 63 24 10 -26 -125 -48 -10 26c3,3 8,10 16,19l17 21 16 18c6,7 12,13 17,19 0,0 0,0 0,0l0 0z"/>
   <polygon class="fil2" points="347,1361 335,1386 384,1409 365,1448 317,1425 305,1450 426,1507 438,1482 385,1457 403,1418 457,1443 469,1418 "/>
   <polygon class="fil2" points="425,1218 411,1243 458,1269 437,1306 390,1280 376,1304 493,1370 507,1346 456,1317 477,1279 528,1308 542,1284 "/>
   <path class="fil2" d="M561 1022l-50 69 14 14 28 -38c4,-6 7,-11 8,-13 1,4 3,8 6,13l54 93 16 -22 -60 -104 -16 -12z"/>
   <path class="fil2" d="M652 908l-54 65 13 15 30 -36c5,-6 8,-10 9,-13 1,4 3,9 6,13l47 97 18 -21 -54 -108 -15 -12z"/>
   <path class="fil2" d="M814 852l-11 12 -60 -56 -20 16 24 99 16 15 37 -40 19 17 18 -19 -19 -18 11 -12 -15 -14zm-42 45c-3,3 -6,6 -8,9 0,-5 -1,-9 -2,-13l-6 -26c-2,-6 -3,-11 -5,-16l0 0c4,5 8,9 11,11l23 21 -13 14z"/>
   <path class="fil2" d="M841 805l22 -10c-5,-9 -3,-18 3,-23 10,-9 20,-7 32,5 9,11 13,23 4,32 -8,7 -17,5 -24,-2 -1,-1 -2,-3 -3,-4 -7,9 -13,17 -18,23 17,16 38,16 58,-3 21,-20 22,-44 2,-66 -19,-20 -40,-22 -57,-6 -9,8 -12,16 -12,26l0 0 -21 -25 39 -37c-5,-7 -8,-13 -11,-16l-57 54 43 52z"/>
   <path class="fil2" d="M946 709l22 -9c-3,-9 -1,-17 5,-23 10,-8 20,-5 31,8 9,11 12,23 3,31 -9,8 -17,5 -24,-3 -1,-1 -2,-2 -3,-4 -8,9 -14,16 -19,22 15,17 36,18 57,1 23,-19 25,-43 7,-66 -18,-21 -38,-25 -57,-10 -9,8 -13,16 -13,25l0 0 -19 -26 41 -34c-5,-8 -8,-14 -10,-17l-61 50 40 55z"/>
   <path class="fil2" d="M1057 620l23 -8c-3,-9 0,-17 6,-22 11,-7 21,-4 31,10 8,11 10,24 0,31 -9,7 -17,4 -23,-5 -1,-1 -2,-2 -3,-4 -8,9 -15,16 -21,21 14,18 36,21 58,5 23,-18 27,-42 10,-66 -16,-22 -36,-27 -55,-13 -10,6 -15,14 -15,23l-1 0 -17 -27 43 -31c-3,-8 -6,-14 -8,-18l-64 46 36 58z"/>
   <path class="fil2" d="M1174 538l23 -6c-3,-10 1,-17 8,-22 11,-6 20,-3 29,12 8,12 9,25 -1,31 -10,6 -18,3 -23,-6 -1,-1 -2,-3 -2,-4 -9,8 -17,14 -23,19 13,19 34,23 57,8 25,-15 31,-39 15,-64 -14,-23 -34,-30 -54,-17 -10,6 -16,13 -17,22l0 0 -16 -28 46 -28c-4,-8 -6,-15 -8,-19l-67 42 33 60z"/>
   <path class="fil2" d="M1296 464l23 -4c-1,-10 3,-18 10,-22 11,-6 21,-1 29,14 6,12 7,25 -4,31 -10,5 -18,1 -23,-8 -1,-1 -1,-3 -2,-4 -9,7 -17,13 -23,17 11,20 32,26 56,13 26,-14 33,-38 19,-63 -13,-25 -32,-33 -53,-21 -10,5 -16,12 -18,21l0 0 -14 -29 47 -25c-3,-9 -5,-15 -6,-19l-70 37 29 62z"/>
   <path class="fil2" d="M1423 398l24 -3c-1,-10 3,-17 11,-20 11,-6 20,-1 28,15 5,13 5,26 -6,31 -11,4 -18,0 -22,-10 -1,-1 -1,-2 -2,-4 -10,7 -18,12 -24,16 10,21 30,27 55,16 27,-12 35,-35 23,-62 -11,-25 -30,-34 -52,-24 -10,5 -17,11 -19,20l0 0 -12 -30 49 -22c-3,-9 -4,-15 -5,-19l-72 32 24 64z"/>
   <path class="fil2" d="M1554 341l24 -2c-1,-10 4,-16 12,-19 12,-5 20,1 26,17 5,13 4,26 -8,30 -10,4 -17,-1 -21,-11 0,-1 -1,-2 -1,-4 -10,6 -19,11 -25,14 8,22 28,30 54,20 27,-10 37,-33 27,-60 -10,-26 -28,-36 -50,-28 -11,4 -18,10 -21,19l0 0 -10 -31 50 -19c-1,-8 -3,-15 -3,-19l-74 28 20 65z"/>
   <path class="fil2" d="M1613 4387c-1,5 -5,12 -8,22l-24 61 26 10 48 -125 -25 -10 -56 47c-9,8 -17,14 -22,20 0,0 -1,0 -1,0l9 -21 24 -63 -26 -10 -48 125 26 10c3,-3 10,-8 19,-16l21 -17 18 -16c7,-6 13,-12 19,-17 0,0 0,0 0,0l0 0z"/>
   <polygon class="fil2" points="1361,4376 1386,4388 1409,4339 1448,4357 1425,4406 1450,4418 1507,4296 1482,4285 1457,4338 1418,4320 1443,4266 1418,4254 "/>
   <polygon class="fil2" points="1218,4298 1243,4312 1269,4265 1306,4286 1280,4333 1304,4347 1370,4230 1346,4216 1317,4267 1279,4246 1308,4195 1284,4181 "/>
   <path class="fil2" d="M1023 4163l69 49 14 -14 -38 -27c-6,-5 -11,-8 -13,-9 4,-1 8,-3 12,-6l94 -54 -22 -16 -105 61 -11 16z"/>
   <path class="fil2" d="M908 4071l65 53 15 -13 -36 -29c-6,-5 -10,-8 -13,-10 4,0 9,-2 14,-5l96 -47 -21 -18 -108 54 -12 15z"/>
   <path class="fil2" d="M852 3909l12 11 -56 60 16 19 99 -24 15 -15 -40 -37 18 -19 -20 -19 -18 20 -12 -12 -14 16zm45 42c3,3 6,6 9,7 -5,1 -9,2 -13,2l-26 7c-6,2 -11,3 -16,5l0 0c5,-5 9,-8 11,-12l21 -22 14 13z"/>
   <path class="fil2" d="M805 3882l-10 -22c-9,4 -18,3 -23,-3 -9,-10 -7,-20 5,-32 11,-9 23,-13 32,-4 7,8 5,17 -2,24 -1,1 -3,2 -4,2 10,8 17,14 23,19 16,-17 16,-38 -3,-58 -20,-21 -44,-22 -66,-2 -20,19 -22,40 -6,57 8,8 16,12 26,12l0 0 -25 21 -37 -39c-7,5 -13,8 -16,11l54 57 52 -43z"/>
   <path class="fil2" d="M709 3777l-9 -22c-9,3 -17,1 -22,-5 -9,-10 -6,-20 7,-31 11,-9 23,-12 31,-3 8,9 5,17 -3,24 -1,1 -2,2 -4,3 9,8 16,14 22,19 17,-15 19,-36 1,-58 -19,-22 -43,-24 -66,-6 -21,18 -25,38 -10,57 8,9 16,13 25,13l0 0 -26 19 -34 -41c-8,5 -14,8 -17,10l50 61 55 -40z"/>
   <path class="fil2" d="M620 3666l-8 -23c-9,3 -17,0 -22,-6 -7,-11 -4,-21 10,-31 11,-8 24,-10 31,0 7,9 4,17 -5,23 -1,1 -2,2 -4,3 9,8 16,15 21,21 18,-14 21,-36 5,-58 -17,-24 -42,-28 -65,-11 -23,17 -28,37 -14,56 7,10 14,15 24,15l-1 1 -27 17 -31 -43c-8,3 -14,6 -18,8l46 64 58 -36z"/>
   <path class="fil2" d="M538 3549l-6 -23c-10,3 -17,-1 -22,-8 -6,-11 -3,-21 12,-30 12,-7 25,-9 31,2 6,10 3,18 -6,23 -1,1 -3,2 -4,2 8,9 14,17 19,22 19,-12 23,-33 8,-57 -15,-24 -39,-30 -64,-15 -23,15 -30,35 -17,55 6,10 13,16 22,17l0 0 -28 15 -28 -45c-8,4 -15,6 -19,8l42 67 60 -33z"/>
   <path class="fil2" d="M464 3427l-4 -23c-10,1 -18,-3 -22,-10 -6,-11 -1,-21 14,-29 12,-6 25,-7 31,4 6,10 1,18 -8,23 -1,0 -3,1 -4,1 7,10 13,18 17,24 20,-12 26,-32 13,-56 -14,-26 -38,-33 -63,-20 -25,13 -33,33 -21,54 5,10 12,16 21,18l0 0 -29 14 -25 -47c-9,3 -15,5 -19,6l37 69 62 -28z"/>
   <path class="fil2" d="M398 3300l-3 -24c-10,1 -17,-3 -20,-11 -6,-11 -1,-21 15,-28 13,-5 26,-5 31,6 5,10 0,18 -10,22 -1,1 -2,1 -4,2 7,10 12,18 16,24 21,-10 27,-30 16,-55 -12,-27 -35,-35 -62,-23 -25,11 -34,30 -24,52 5,10 11,16 20,19l0 0 -30 12 -22 -49c-9,2 -15,4 -19,5l32 72 64 -24z"/>
   <path class="fil2" d="M341 3169l-2 -24c-10,1 -16,-4 -19,-12 -5,-12 1,-21 17,-27 13,-5 26,-3 30,8 4,11 -1,18 -11,22 -1,0 -2,0 -4,1 6,10 11,19 14,25 22,-8 30,-28 20,-54 -10,-27 -33,-37 -60,-27 -26,10 -36,28 -28,50 4,11 10,18 19,21l0 0 -31 10 -19 -50c-8,1 -15,3 -19,3l28 74 65 -20z"/>
   <path class="fil2" d="M4387 3110c5,2 12,5 22,8l61 24 10 -26 -125 -48 -10 26 47 55c8,9 14,17 20,22 0,0 0,1 0,1l-21 -9 -63 -24 -10 26 125 48 10 -26c-3,-3 -8,-10 -16,-19l-17 -21 -15 -18c-7,-7 -13,-13 -18,-19 0,0 0,0 0,0l0 0z"/>
   <polygon class="fil2" points="4376,3362 4388,3337 4339,3314 4358,3275 4406,3298 4418,3273 4297,3216 4285,3241 4338,3266 4320,3305 4266,3280 4255,3305 "/>
   <polygon class="fil2" points="4298,3505 4312,3480 4265,3454 4287,3417 4333,3443 4347,3419 4230,3353 4216,3377 4267,3406 4246,3444 4195,3415 4181,3439 "/>
   <path class="fil2" d="M4162 3700l50 -69 -14 -13 -27 38c-5,6 -8,11 -9,13 -1,-4 -3,-8 -6,-13l-54 -93 -16 22 60 104 16 11z"/>
   <path class="fil2" d="M4071 3815l54 -65 -13 -15 -30 36c-5,6 -8,10 -9,13 -1,-4 -3,-9 -6,-14l-47 -96 -18 21 54 108 15 12z"/>
   <path class="fil2" d="M3909 3871l11 -12 60 56 20 -16 -24 -99 -16 -15 -37 40 -19 -18 -18 20 19 18 -11 12 15 14zm42 -45c3,-3 6,-6 8,-9 0,5 1,9 2,13l6 26c2,6 3,11 5,16l0 0c-4,-5 -8,-9 -11,-11l-23 -21 13 -14z"/>
   <path class="fil2" d="M3882 3918l-22 10c5,9 3,18 -3,23 -10,9 -20,7 -32,-5 -9,-11 -13,-23 -4,-32 8,-7 17,-5 24,2 1,1 2,3 3,4 7,-10 13,-17 18,-23 -17,-16 -38,-16 -58,3 -21,20 -22,44 -2,66 19,20 40,22 57,6 9,-8 12,-16 12,-26l0 0 21 25 -39 37c5,7 8,13 11,16l57 -54 -43 -52z"/>
   <path class="fil2" d="M3777 4014l-22 9c3,9 1,17 -5,22 -10,9 -20,6 -31,-7 -9,-11 -12,-23 -3,-31 9,-8 17,-5 24,3 1,1 2,2 3,4 8,-9 14,-16 19,-22 -15,-17 -36,-19 -57,-1 -23,19 -25,43 -7,66 18,21 38,25 57,10 9,-8 13,-16 13,-25l0 0 19 26 -41 34c5,8 8,14 10,17l61 -50 -40 -55z"/>
   <path class="fil2" d="M3666 4103l-23 8c3,9 0,17 -6,22 -11,7 -21,4 -31,-10 -8,-11 -10,-24 0,-31 9,-7 17,-4 23,5 1,1 2,2 3,4 8,-9 15,-16 21,-21 -14,-18 -35,-21 -58,-5 -23,17 -27,42 -10,66 16,22 36,27 55,13 10,-6 15,-14 15,-24l1 1 17 27 -43 31c4,8 6,14 8,18l64 -46 -36 -58z"/>
   <path class="fil2" d="M3549 4185l-23 6c3,10 -1,17 -8,22 -11,6 -20,3 -29,-12 -8,-12 -9,-25 1,-31 10,-6 18,-3 23,6 1,1 2,3 2,4 9,-8 17,-14 23,-19 -13,-19 -34,-23 -57,-8 -25,15 -31,39 -15,64 14,23 34,30 54,17 10,-6 16,-13 17,-22l0 0 16 28 -46 28c4,8 6,15 8,19l67 -42 -33 -60z"/>
   <path class="fil2" d="M3427 4259l-23 4c2,10 -3,18 -10,22 -11,6 -20,1 -29,-14 -6,-12 -7,-25 4,-31 10,-5 18,-1 23,8 1,1 1,3 2,4 9,-7 17,-13 23,-17 -11,-20 -32,-26 -56,-13 -26,14 -33,38 -19,63 13,25 32,33 53,21 10,-5 16,-12 18,-21l0 0 14 29 -47 25c3,9 5,15 6,19l70 -37 -29 -62z"/>
   <path class="fil2" d="M3300 4325l-24 3c1,10 -3,17 -11,20 -11,6 -20,1 -28,-15 -5,-13 -5,-26 6,-31 11,-5 18,0 22,10 1,1 1,2 2,4 10,-7 18,-12 24,-16 -10,-21 -30,-27 -55,-16 -27,12 -35,35 -23,62 11,25 30,34 52,24 10,-5 17,-11 19,-20l0 0 12 30 -49 22c3,9 4,15 5,19l72 -32 -24 -64z"/>
   <path class="fil2" d="M3169 4382l-24 2c1,10 -4,16 -12,19 -12,5 -20,-1 -26,-17 -5,-13 -4,-26 8,-30 10,-4 17,1 21,11 0,1 1,2 1,4 10,-6 19,-11 25,-14 -8,-22 -28,-30 -54,-20 -27,10 -37,33 -27,60 10,26 28,36 50,28 11,-4 18,-10 21,-19l0 0 10 31 -50 19c1,8 3,15 3,19l74 -28 -20 -65z"/>
   <path class="fil2" d="M3110 336c2,-5 5,-12 8,-22l24 -61 -26 -10 -48 125 26 9 55 -46c9,-8 17,-14 22,-20 0,0 1,0 1,0l-9 21 -24 63 26 10 48 -125 -26 -10c-3,3 -10,8 -19,16l-21 17 -18 15c-7,7 -13,13 -19,18 0,0 0,0 0,0l0 0z"/>
   <polygon class="fil2" points="3362,347 3337,335 3314,384 3275,365 3298,317 3273,305 3216,426 3241,438 3266,385 3305,403 3280,457 3305,468 "/>
   <polygon class="fil2" points="3505,425 3480,411 3454,458 3417,437 3443,390 3419,376 3353,493 3377,507 3406,456 3444,477 3415,528 3439,542 "/>
   <path class="fil2" d="M3701 561l-69 -50 -14 14 38 27c6,5 11,8 13,9 -4,1 -8,3 -13,6l-93 54 22 16 104 -60 12 -16z"/>
   <path class="fil2" d="M3815 652l-65 -54 -15 13 36 30c6,5 10,8 13,9 -4,1 -9,3 -14,6l-96 47 21 18 108 -54 12 -15z"/>
   <path class="fil2" d="M3871 814l-12 -11 56 -60 -16 -20 -99 24 -15 16 40 37 -17 19 19 18 18 -19 12 11 14 -15zm-45 -42c-3,-3 -6,-6 -9,-8 5,0 9,-1 13,-2l26 -6c6,-2 11,-3 16,-5l0 0c-5,4 -8,8 -11,11l-21 23 -14 -13z"/>
   <path class="fil2" d="M3918 841l10 22c9,-5 18,-3 23,3 9,10 7,20 -5,32 -11,9 -23,13 -32,4 -7,-8 -5,-17 2,-24 1,-1 3,-2 4,-3 -9,-7 -17,-13 -23,-18 -16,17 -16,38 3,58 20,21 44,22 66,2 20,-19 22,-40 6,-57 -8,-9 -16,-12 -26,-12l0 0 25 -21 37 39c7,-5 13,-8 16,-11l-54 -57 -52 43z"/>
   <path class="fil2" d="M4014 946l9 22c9,-3 17,-1 23,5 8,10 5,20 -8,31 -11,9 -23,12 -31,3 -8,-9 -5,-17 3,-24 1,-1 2,-2 4,-3 -9,-8 -16,-14 -22,-19 -17,15 -18,36 -1,57 19,23 43,25 66,7 21,-18 25,-38 10,-57 -8,-9 -16,-13 -25,-13l0 0 26 -19 34 41c8,-5 14,-8 17,-10l-50 -61 -55 40z"/>
   <path class="fil2" d="M4103 1057l8 23c9,-3 17,0 22,6 7,11 4,21 -10,31 -11,8 -24,10 -31,0 -7,-9 -4,-17 5,-23 1,-1 2,-2 4,-3 -9,-8 -16,-15 -21,-21 -18,14 -21,35 -5,58 17,23 42,27 66,10 22,-16 27,-36 13,-55 -6,-10 -14,-15 -23,-15l0 -1 27 -17 31 43c8,-3 14,-6 18,-8l-46 -64 -58 36z"/>
   <path class="fil2" d="M4185 1174l6 23c10,-3 17,1 22,8 6,11 3,20 -12,29 -12,8 -25,9 -31,-1 -6,-10 -3,-18 6,-23 1,-1 3,-2 4,-2 -8,-9 -14,-17 -19,-23 -19,13 -23,34 -8,57 15,25 39,31 64,15 23,-14 30,-34 17,-54 -6,-10 -13,-16 -22,-17l0 0 28 -16 28 46c8,-4 15,-6 19,-8l-42 -67 -60 33z"/>
   <path class="fil2" d="M4259 1296l4 23c10,-1 18,3 21,10 7,11 2,21 -13,29 -12,6 -25,7 -31,-4 -6,-10 -1,-18 8,-23 1,-1 3,-1 4,-2 -7,-9 -13,-17 -17,-23 -20,11 -26,32 -13,56 14,26 38,33 63,19 25,-13 33,-32 21,-53 -5,-10 -12,-16 -21,-18l0 0 29 -14 25 47c9,-3 15,-5 19,-6l-37 -70 -62 29z"/>
   <path class="fil2" d="M4325 1423l3 24c10,-1 17,3 20,11 6,11 1,21 -15,28 -13,5 -26,5 -31,-6 -5,-11 0,-18 10,-22 1,-1 2,-1 4,-2 -7,-10 -12,-18 -16,-24 -21,10 -27,30 -16,55 12,27 35,35 62,23 25,-11 34,-30 24,-52 -5,-10 -11,-17 -20,-19l0 0 30 -12 22 49c9,-2 15,-4 19,-5l-32 -72 -64 24z"/>
   <path class="fil2" d="M4382 1554l2 24c10,-1 16,4 19,12 5,12 -1,20 -17,26 -13,5 -26,4 -30,-8 -4,-10 1,-17 11,-21 1,0 2,-1 4,-1 -6,-10 -11,-19 -14,-25 -22,8 -30,28 -20,54 10,27 33,37 60,27 26,-10 36,-28 28,-50 -4,-11 -10,-18 -19,-21l0 0 31 -10 19 50c8,-1 15,-3 19,-3l-28 -74 -65 20z"/>
   <path class="fil0" d="M3325 814c-7,1 -21,6 -43,15 -12,5 -21,4 -27,-5 -2,-4 -3,-8 -2,-13 1,-5 4,-9 8,-12 7,-4 16,-5 25,0 16,8 29,10 39,8l1 -2c-6,-10 -14,-17 -23,-22 -9,-5 -15,-9 -18,-14 -4,-6 -5,-11 -3,-15 1,-5 4,-8 8,-11 4,-3 9,-3 14,-3 5,1 9,5 12,10 3,4 4,11 5,21 1,10 4,20 11,30l4 0c4,-11 7,-23 7,-35 0,-13 4,-21 10,-25 5,-3 9,-4 14,-3 5,1 9,4 11,8 6,9 2,20 -12,32 -14,12 -22,21 -24,28l2 2c7,0 20,-5 40,-14 13,-6 22,-4 28,5 3,4 4,9 3,13 -1,5 -4,9 -8,12 -8,4 -18,3 -31,-3 -13,-7 -24,-9 -34,-6l-1 2c7,10 15,17 24,23 9,5 15,10 17,13 2,4 4,7 4,11 1,6 -3,11 -9,15 -5,4 -10,4 -15,3 -5,-2 -8,-5 -11,-9 -3,-4 -4,-12 -5,-23 -1,-11 -3,-19 -6,-24 -1,-1 -1,-2 -2,-3 -1,0 -2,-1 -3,-2l-3 0c-5,11 -7,23 -8,36 0,13 -3,21 -9,25 -5,3 -10,4 -15,3 -4,-1 -8,-4 -10,-7 -4,-6 -5,-12 -2,-18 2,-5 6,-10 13,-15 8,-6 14,-10 17,-14 3,-3 6,-8 8,-14l-1 -3z"/>
  </g>
 </g>
</svg>
